<svg xmlns="http://www.w3.org/2000/svg" width="32" height="32" viewBox="0 0 256 256">
  <circle cx="128" cy="128" r="128" fill="#25a07b"/>
  <path fill="#ffffff" d="M144.7 106.3v-16.4h44.3V58.1H67v31.8h44.3v16.3c-40.2 1.5-70.3 9.5-70.3 18.7s30.1 17.2 70.3 18.7v49.8h33.4v-49.8c40.1-1.5 70.1-9.5 70.1-18.7s-30-17.2-70.1-18.7zm0 31.5v-.2c-1.6.1-9.6.5-16.9.5s-15.4-.4-16.9-.5v.2c-33.4-1.3-58.4-7.5-58.4-14.6s25-13.3 58.4-14.6v22.5c1.5.1 9.7.6 16.9.6s15.3-.5 16.9-.6v-22.5c33.3 1.3 58.1 7.5 58.1 14.6s-24.8 13.3-58.1 14.6z"/>
</svg>
